<svg width="130" height="32" viewBox="0 0 130 32" fill="none" xmlns="http://www.w3.org/2000/svg">
<path fill-rule="evenodd" clip-rule="evenodd" d="M80.3283 11.9175C82.0825 11.9321 83.6906 12.5753 84.9186 13.6425L84.9332 7.32715H87.4477L87.3892 26.0978H84.8747V24.592C83.6321 25.6446 82.0387 26.2878 80.299 26.2878H80.2844C76.3666 26.2732 73.1943 23.0424 73.2089 19.0807C73.2235 15.119 76.3958 11.9175 80.3137 11.9175H80.3283ZM76.9221 22.5454C77.8284 23.4664 79.0272 23.978 80.3137 23.978C82.945 23.978 85.094 21.7998 85.1086 19.1246C85.1086 17.8089 84.6116 16.5809 83.7052 15.6599C82.7989 14.7389 81.6001 14.2273 80.3283 14.2273H80.3137C77.6823 14.2273 75.5333 16.4055 75.5187 19.0807C75.5187 20.3964 76.0157 21.6244 76.9221 22.5454ZM40.8866 26.1123H38.1968V7.34172H49.5849V10.0316H40.8866V14.6219H49.3656V17.0925H40.8866V26.1123ZM60.7975 13.6863C61.7331 12.5899 63.2681 11.9321 64.9054 11.9321C68.3993 11.9321 70.5775 14.1395 70.5629 17.7065V26.1124H68.0046V18.1451C68.0046 15.616 66.6012 14.0957 64.2622 14.0957C61.8939 14.0957 60.4905 15.616 60.4905 18.1451V26.1124H57.903V12.166H60.4905V14.0664L60.7975 13.6863ZM127.386 12.1659V13.6278C126.144 12.5606 124.55 11.9174 122.796 11.9174C118.878 11.9174 115.691 15.1336 115.691 19.1099C115.691 23.0716 118.864 26.3024 122.796 26.3024C124.55 26.3024 126.144 25.6591 127.386 24.592V26.0977H129.901V12.1659H127.386ZM122.796 23.978C120.15 23.978 118.001 21.7851 118.001 19.1099C118.001 16.42 120.15 14.2418 122.796 14.2418C125.442 14.2418 127.591 16.4346 127.591 19.1099C127.591 21.7998 125.442 23.978 122.796 23.978ZM97.0961 11.9321C93.1783 11.9321 89.9914 15.1482 89.9914 19.1245C89.9914 23.0863 93.1637 26.317 97.0961 26.317C101.014 26.317 104.201 23.1009 104.201 19.1245C104.201 15.1482 101.014 11.9321 97.0961 11.9321ZM97.0961 23.978C94.4501 23.978 92.3011 21.7852 92.3011 19.1099C92.3011 16.4201 94.4501 14.2418 97.0961 14.2418C99.7421 14.2418 101.891 16.4347 101.891 19.1099C101.891 21.7998 99.7421 23.978 97.0961 23.978ZM52.0993 23.6418V20.0163V12.1221H54.8184V26.0685H52.0993V23.6418ZM52.0993 8.73051V9.43222V10.0316H54.8184V7.34172H52.0993V8.73051ZM109.464 14.7535C109.858 13.7155 111.028 12.0344 113.879 12.0344C113.901 12.0344 113.928 12.0342 113.958 12.034C114.203 12.0324 114.673 12.0293 114.829 12.1075V14.2711C114.829 14.2711 112.943 13.9494 111.379 14.9728C109.668 16.0838 109.464 17.6188 109.464 18.9345V26.0685H106.745V22.9547V19.3292V12.1952H109.464V14.7535Z" fill="#2C2933"/>
<path fill-rule="evenodd" clip-rule="evenodd" d="M6.91173 6.62529C6.95558 6.80071 7.13101 6.90305 7.30644 6.84457L21.9253 2.92672C22.2761 2.839 22.2323 2.32734 21.8668 2.2981L5.81531 0.850837C5.59603 0.836218 5.4206 1.04088 5.47908 1.24555L6.91173 6.62529ZM8.37361 16.2006L6.23925 8.23333L5.9615 7.19539L4.82122 2.95593C4.73351 2.63431 4.29495 2.63431 4.20723 2.95593L0.113952 18.2326C0.055476 18.4665 0.260142 18.6858 0.508662 18.6273L8.15432 16.5807C8.31513 16.5515 8.41746 16.376 8.37361 16.2006ZM24.9514 3.21909C25.4046 3.10214 25.9016 3.3068 26.1355 3.71613L29.9511 10.3385C30.0534 10.5139 29.9657 10.7478 29.761 10.8063L9.80628 16.1275C9.63085 16.186 9.45543 16.0837 9.41157 15.9083L7.36493 8.2626C7.30645 8.08717 7.40878 7.91175 7.58421 7.86789L24.9514 3.21909ZM8.81218 17.8526C8.76832 17.6771 8.59289 17.5748 8.41747 17.6333L0.771804 19.6799C0.537902 19.7384 0.450188 20.0454 0.625615 20.2062L11.8529 31.5212C12.0868 31.7551 12.4669 31.5358 12.3938 31.2142L8.81218 17.8526ZM10.0694 17.1801L29.1031 12.0781C29.4101 12.005 29.6294 12.3412 29.4394 12.5898L14.1919 31.8282C14.0311 32.0328 13.7095 31.9597 13.6364 31.7112L9.8501 17.5748C9.79163 17.3994 9.89396 17.2239 10.0694 17.1801Z" fill="#7733FF"/>
</svg>
