<svg width="153" height="37" viewBox="0 0 153 37" fill="none" xmlns="http://www.w3.org/2000/svg">
<path d="M76.3844 13.1132C74.4455 13.1132 72.6376 13.8871 71.5466 15.1814L71.176 15.6209V13.3804H68.122V29.8172H71.176V20.4208C71.176 17.4323 72.8392 15.6467 75.6226 15.6467C78.406 15.6467 80.0382 17.4323 80.0382 20.4208V29.8172H83.0612V19.9141C83.0612 15.7191 80.5035 13.1132 76.3844 13.1132Z" fill="#2C2933"/>
<path d="M44.8913 29.8465H48.0625V19.2074H58.0586V16.2896H48.0625V10.883H58.3172V7.71182H44.8913V29.8465Z" fill="#2C2933"/>
<path d="M150.039 13.389V15.1228C148.535 13.8249 146.614 13.1115 144.627 13.1132C140.003 13.1132 136.256 16.9049 136.256 21.5841C136.256 26.2634 140.003 30.055 144.627 30.055C146.614 30.0567 148.535 29.3434 150.039 28.0455V29.8172H153V13.389H150.039ZM144.627 27.3302C141.515 27.3302 138.981 24.745 138.981 21.5841C138.981 18.4233 141.515 15.838 144.627 15.838C147.74 15.838 150.275 18.4233 150.275 21.5841C150.275 24.745 147.742 27.3302 144.627 27.3302V27.3302Z" fill="#2C2933"/>
<path d="M99.972 15.1383C98.4737 13.8378 96.558 13.1191 94.574 13.1132H94.5499C89.9379 13.1132 86.191 16.8893 86.179 21.5583C86.1669 26.2272 89.9017 30.0395 94.5258 30.0533H94.5499C96.5281 30.0547 98.4413 29.3473 99.9427 28.0592V29.8327H102.904L102.969 7.70665L100.008 7.69803L99.972 15.1383ZM94.5413 27.3302H94.5258C93.784 27.3288 93.05 27.1791 92.3668 26.8899C91.6837 26.6008 91.0653 26.178 90.548 25.6464C89.4783 24.5599 88.8838 23.0932 88.8952 21.5686C88.9038 18.4077 91.4373 15.838 94.5413 15.838H94.5585C95.3005 15.8386 96.0349 15.9877 96.7184 16.2766C97.4019 16.5655 98.0206 16.9883 98.538 17.5201C99.6079 18.6073 100.203 20.0744 100.193 21.5996C100.179 24.7605 97.647 27.3302 94.5413 27.3302V27.3302Z" fill="#2C2933"/>
<path d="M114.33 13.1132C109.708 13.1132 105.959 16.9049 105.959 21.5841C105.959 26.2634 109.708 30.055 114.33 30.055C118.953 30.055 122.703 26.2634 122.703 21.5841C122.703 16.9049 118.954 13.1132 114.33 13.1132ZM114.33 27.3302C111.218 27.3302 108.684 24.745 108.684 21.5841C108.684 18.4233 111.218 15.838 114.33 15.838C117.443 15.838 119.978 18.4233 119.978 21.5841C119.978 24.745 117.445 27.3302 114.33 27.3302Z" fill="#2C2933"/>
<path d="M61.2781 22.6596V26.9235V29.7844H64.4907V13.339H61.2781V22.6596Z" fill="#2C2933"/>
<path d="M61.2781 9.34223V10.1712V10.883H64.4907V7.71182H61.2781V9.34223Z" fill="#2C2933"/>
<path d="M134.126 13.2338C130.76 13.2338 129.388 15.221 128.918 16.443V13.4251H125.705V29.7844H128.918V21.3721C128.918 19.821 129.157 18.0165 131.174 16.6963C133.016 15.4899 135.245 15.8777 135.245 15.8777V13.32C135.034 13.2304 134.362 13.2338 134.126 13.2338Z" fill="#2C2933"/>
<path d="M8.02774 6.86214C8.05358 6.95835 8.11658 7.04035 8.20287 7.09012C8.28916 7.1399 8.39169 7.15336 8.48791 7.12756L25.7227 2.50863C25.8083 2.48606 25.8832 2.43399 25.9341 2.3616C25.9851 2.28922 26.0089 2.20117 26.0012 2.11297C25.9936 2.02478 25.9551 1.94211 25.8925 1.87955C25.8298 1.81698 25.7471 1.77853 25.6589 1.77098L6.72996 0.0716318C6.66984 0.0662948 6.60932 0.0755195 6.55352 0.0985256C6.49772 0.121532 6.44828 0.157642 6.4094 0.2038C6.37051 0.249958 6.34331 0.304804 6.33011 0.363698C6.31691 0.422593 6.31809 0.4838 6.33355 0.542141L8.02774 6.86214Z" fill="#260563"/>
<path d="M9.74605 18.1544L7.23149 8.77002L6.90403 7.55152L5.56489 2.55343C5.5428 2.47395 5.49528 2.40391 5.42961 2.354C5.36393 2.30409 5.28372 2.27707 5.20123 2.27707C5.11875 2.27707 5.03853 2.30409 4.97286 2.354C4.90718 2.40391 4.85967 2.47395 4.83758 2.55343L0.0118327 20.5707C-0.00448723 20.6342 -0.00391631 20.7008 0.0134882 20.764C0.0308926 20.8272 0.0645245 20.8847 0.111045 20.9309C0.157566 20.9771 0.215357 21.0103 0.278678 21.0272C0.341999 21.0441 0.408646 21.0442 0.472002 21.0274L9.47719 18.6145C9.52538 18.6025 9.57068 18.581 9.61042 18.5512C9.65016 18.5214 9.68354 18.484 9.7086 18.4411C9.73365 18.3982 9.74987 18.3508 9.7563 18.3015C9.76274 18.2523 9.75925 18.2022 9.74605 18.1544V18.1544Z" fill="#260563"/>
<path d="M30.6898 3.44794C30.5521 3.21006 30.34 3.02411 30.0861 2.91882C29.8322 2.81353 29.5507 2.79476 29.2851 2.86541L8.81364 8.34607C8.71743 8.37192 8.63543 8.43491 8.58566 8.52121C8.53588 8.6075 8.52242 8.71003 8.54822 8.80624L10.9611 17.8287C10.9869 17.9249 11.0499 18.0069 11.1362 18.0566C11.2225 18.1064 11.325 18.1199 11.4213 18.0941L34.9588 11.7879C35.0145 11.773 35.0659 11.7456 35.1093 11.7077C35.1526 11.6699 35.1867 11.6225 35.2088 11.5694C35.231 11.5163 35.2406 11.4588 35.237 11.4013C35.2334 11.3439 35.2167 11.288 35.1881 11.2381L30.6898 3.44794Z" fill="#260563"/>
<path d="M10.2683 20.1002C10.2424 20.004 10.1794 19.922 10.0931 19.8722C10.0068 19.8224 9.90432 19.809 9.8081 19.8348L0.796019 22.2477C0.732243 22.2643 0.673982 22.2975 0.627084 22.3438C0.580187 22.3902 0.546306 22.448 0.528842 22.5116C0.511378 22.5752 0.510948 22.6422 0.527593 22.706C0.544238 22.7698 0.577373 22.8281 0.623671 22.875L13.8548 36.2113C13.9131 36.2707 13.9893 36.3091 14.0717 36.3205C14.1542 36.3319 14.238 36.3156 14.3102 36.2742C14.3823 36.2328 14.4387 36.1686 14.4704 36.0917C14.5022 36.0149 14.5075 35.9296 14.4856 35.8494L10.2683 20.1002Z" fill="#260563"/>
<path d="M34.1988 13.2993L11.7522 19.3143C11.7046 19.3269 11.66 19.3488 11.6209 19.3786C11.5818 19.4085 11.549 19.4458 11.5243 19.4884C11.4997 19.531 11.4837 19.578 11.4772 19.6268C11.4708 19.6756 11.474 19.7252 11.4868 19.7727L15.954 36.4405C15.9721 36.5076 16.0085 36.5684 16.0591 36.616C16.1096 36.6637 16.1724 36.6964 16.2405 36.7105C16.3085 36.7246 16.3792 36.7196 16.4445 36.6959C16.5099 36.6723 16.5674 36.631 16.6107 36.5767L34.5969 13.8957C34.6471 13.8334 34.6761 13.7567 34.6797 13.6768C34.6833 13.5968 34.6613 13.5178 34.6168 13.4513C34.5724 13.3848 34.5079 13.3341 34.4327 13.3068C34.3575 13.2795 34.2756 13.2769 34.1988 13.2993V13.2993Z" fill="#260563"/>
</svg>
