<svg width="254" height="40" viewBox="0 0 254 40" fill="none" xmlns="http://www.w3.org/2000/svg">
<g clip-path="url(#clip0_15_250)">
<path d="M126.02 28.5858V9.16502H140.907V12.6608H130.032V17.0998H137.199V20.4845H130.032V25.0901H141.018V28.5858H126.02Z" fill="#EAEDFB"/>
<path d="M141.839 28.5871L147.373 21.235L141.978 14.1325H146.377L149.56 18.4328L152.715 14.1325H156.975L151.663 21.1795L157.308 28.5871H152.88L149.477 23.9816L146.073 28.5871H141.839Z" fill="#EAEDFB"/>
<path d="M164.445 25.5344C165.09 25.5344 165.689 25.4049 166.243 25.146C166.815 24.887 167.359 24.4801 167.876 23.9252L170.144 26.2834C169.407 27.0972 168.522 27.7354 167.489 28.1978C166.456 28.6417 165.385 28.8637 164.278 28.8637C163.227 28.8637 162.231 28.6694 161.29 28.281C160.368 27.8926 159.565 27.3655 158.883 26.6996C158.218 26.0337 157.692 25.2477 157.305 24.3414C156.918 23.4166 156.724 22.427 156.724 21.3728C156.724 20.3185 156.918 19.3382 157.305 18.4319C157.692 17.5071 158.218 16.7118 158.883 16.0459C159.565 15.3616 160.368 14.8252 161.29 14.4368C162.231 14.0483 163.227 13.8541 164.278 13.8541C165.422 13.8541 166.52 14.0853 167.572 14.5477C168.622 14.9916 169.518 15.6205 170.255 16.4343L167.931 18.9035C167.415 18.3302 166.861 17.8955 166.271 17.5996C165.68 17.3037 165.045 17.1557 164.362 17.1557C163.273 17.1557 162.351 17.5626 161.594 18.3764C160.857 19.1903 160.487 20.189 160.487 21.3728C160.487 22.5566 160.866 23.546 161.622 24.3414C162.397 25.1367 163.338 25.5344 164.445 25.5344Z" fill="#EAEDFB"/>
<path d="M172.115 28.5864V9.16563L175.907 8.33331V15.2693C176.461 14.8069 177.07 14.4555 177.733 14.215C178.416 13.9746 179.153 13.8544 179.947 13.8544C181.608 13.8544 182.972 14.3908 184.043 15.4635C185.113 16.5363 185.648 17.9143 185.648 19.5974V28.5864H181.856V20.1523C181.856 19.246 181.58 18.5153 181.026 17.9605C180.491 17.4056 179.771 17.1282 178.868 17.1282C178.24 17.1282 177.668 17.2577 177.152 17.5166C176.653 17.757 176.239 18.1084 175.907 18.5708V28.5864H172.115Z" fill="#EAEDFB"/>
<path d="M199.283 28.5876V27.3947C198.711 27.857 198.074 28.2085 197.374 28.4489C196.672 28.6708 195.944 28.7818 195.187 28.7818C194.172 28.7818 193.213 28.5876 192.31 28.1992C191.423 27.8107 190.649 27.2837 189.984 26.6178C189.321 25.9519 188.795 25.1658 188.407 24.2595C188.038 23.3532 187.855 22.3822 187.855 21.3464C187.855 20.3107 188.048 19.3396 188.435 18.4333C188.823 17.5271 189.349 16.7409 190.012 16.0751C190.677 15.4092 191.46 14.8913 192.365 14.5214C193.287 14.133 194.265 13.9388 195.298 13.9388C195.998 13.9388 196.681 14.0405 197.346 14.244C198.028 14.4289 198.655 14.7064 199.227 15.0763V14.133H203.019V28.5876H199.283ZM191.59 21.3464C191.59 22.5117 191.995 23.5012 192.808 24.315C193.619 25.1289 194.615 25.5358 195.796 25.5358C196.496 25.5358 197.133 25.4155 197.705 25.1751C198.296 24.9347 198.803 24.5925 199.227 24.1485V18.5165C198.822 18.0911 198.314 17.7582 197.705 17.5178C197.115 17.2773 196.479 17.1571 195.796 17.1571C194.597 17.1571 193.591 17.564 192.78 18.3778C191.986 19.1731 191.59 20.1627 191.59 21.3464Z" fill="#EAEDFB"/>
<path d="M206.002 28.5862V14.1316H209.794V15.2691C210.348 14.8067 210.957 14.4553 211.62 14.2148C212.303 13.9744 213.04 13.8541 213.834 13.8541C215.495 13.8541 216.86 14.3905 217.93 15.4633C219 16.5361 219.535 17.914 219.535 19.5972V28.5862H215.743V20.152C215.743 19.2458 215.467 18.5151 214.914 17.9603C214.379 17.4054 213.659 17.1279 212.755 17.1279C212.127 17.1279 211.555 17.2574 211.039 17.5164C210.541 17.7568 210.126 18.1082 209.794 18.5706V28.5862H206.002Z" fill="#EAEDFB"/>
<path d="M229.047 28.6692C228.032 28.6692 227.073 28.475 226.169 28.0867C225.284 27.6983 224.508 27.1711 223.844 26.5053C223.199 25.8394 222.683 25.0625 222.294 24.1748C221.926 23.2685 221.742 22.2975 221.742 21.2616C221.742 20.2443 221.935 19.2918 222.322 18.404C222.71 17.4977 223.236 16.7116 223.899 16.0458C224.564 15.3799 225.347 14.862 226.252 14.4921C227.156 14.1037 228.124 13.9095 229.158 13.9095C229.876 13.9095 230.559 14.0112 231.205 14.2147C231.87 14.4181 232.487 14.7048 233.059 15.0747V14.1314H236.795V28.586C236.795 30.4912 236.177 31.9616 234.94 32.9973C233.723 34.0331 231.961 34.551 229.656 34.551C228.548 34.551 227.478 34.44 226.445 34.218C225.431 33.9962 224.499 33.6725 223.651 33.247L224.979 30.2785C225.773 30.6668 226.547 30.9536 227.304 31.1385C228.06 31.342 228.817 31.4437 229.572 31.4437C230.698 31.4437 231.546 31.194 232.118 30.6947C232.709 30.2137 233.003 29.5016 233.003 28.5584V27.3653C232.431 27.7908 231.805 28.1144 231.122 28.3364C230.458 28.5584 229.767 28.6692 229.047 28.6692ZM225.477 21.2616C225.477 22.4269 225.873 23.4165 226.667 24.2303C227.478 25.0441 228.465 25.451 229.628 25.451C230.311 25.451 230.937 25.34 231.509 25.118C232.081 24.8776 232.579 24.5539 233.003 24.147V18.4595C232.598 18.0526 232.1 17.7381 231.509 17.5162C230.919 17.2757 230.302 17.1555 229.656 17.1555C228.493 17.1555 227.506 17.5532 226.695 18.3485C225.882 19.1439 225.477 20.1149 225.477 21.2616Z" fill="#EAEDFB"/>
<path d="M252.704 26.7828C251.819 27.5041 250.906 28.0313 249.964 28.3641C249.042 28.6971 248.009 28.8636 246.865 28.8636C245.778 28.8636 244.754 28.6693 243.795 28.2809C242.853 27.8926 242.032 27.3654 241.331 26.6995C240.649 26.0337 240.105 25.2476 239.699 24.3414C239.311 23.4165 239.118 22.4269 239.118 21.3727C239.118 20.3369 239.301 19.3658 239.671 18.4596C240.058 17.5347 240.584 16.7394 241.249 16.0736C241.912 15.3892 242.697 14.8529 243.6 14.4644C244.523 14.076 245.5 13.8818 246.533 13.8818C247.548 13.8818 248.489 14.0853 249.357 14.4922C250.242 14.8806 250.997 15.417 251.625 16.1013C252.271 16.7857 252.769 17.6088 253.119 18.5706C253.488 19.5138 253.673 20.5403 253.673 21.6501V22.6489H242.936C243.195 23.5552 243.693 24.2859 244.43 24.8407C245.169 25.3956 246.035 25.673 247.031 25.673C247.659 25.673 248.249 25.5712 248.803 25.3678C249.357 25.1643 249.827 24.8777 250.214 24.5077L252.704 26.7828ZM246.45 17.0169C245.583 17.0169 244.836 17.285 244.209 17.8215C243.582 18.3394 243.149 19.0422 242.908 19.93H249.964C249.725 19.0792 249.283 18.3856 248.637 17.8492C248.009 17.2943 247.281 17.0169 246.45 17.0169Z" fill="#EAEDFB"/>
<path d="M68 28.5876V9.16669H72.0124V25.0362H82.6108V28.5876H68Z" fill="#BEF102"/>
<path d="M97.4288 26.7828C96.5432 27.5042 95.63 28.0312 94.6892 28.3642C93.7668 28.6971 92.7337 28.8636 91.59 28.8636C90.5015 28.8636 89.4776 28.6694 88.5183 28.2811C87.5775 27.8926 86.7566 27.3655 86.0556 26.6996C85.3729 26.0338 84.8287 25.2476 84.4229 24.3414C84.0355 23.4165 83.8417 22.4271 83.8417 21.3727C83.8417 20.337 84.0263 19.366 84.3953 18.4597C84.7826 17.5348 85.3085 16.7395 85.9725 16.0736C86.6366 15.3893 87.4207 14.8529 88.3246 14.4645C89.247 14.0761 90.2248 13.8819 91.2578 13.8819C92.2725 13.8819 93.2134 14.0853 94.0805 14.4922C94.9659 14.8806 95.7222 15.417 96.3495 16.1014C96.9952 16.7857 97.4932 17.6088 97.8437 18.5705C98.2127 19.5139 98.3972 20.5405 98.3972 21.6502V22.6489H87.6605C87.9188 23.5552 88.4168 24.2859 89.1548 24.8407C89.8927 25.3956 90.7598 25.6731 91.7559 25.6731C92.3832 25.6731 92.9735 25.5714 93.5269 25.3679C94.0804 25.1645 94.5508 24.8777 94.9383 24.5079L97.4288 26.7828ZM91.1749 17.0169C90.3078 17.0169 89.5607 17.2852 88.9334 17.8215C88.3061 18.3394 87.8727 19.0422 87.6329 19.9301H94.6892C94.4493 19.0792 94.0066 18.3856 93.361 17.8493C92.7337 17.2944 92.0049 17.0169 91.1749 17.0169Z" fill="#BEF102"/>
<path d="M102.144 24.5097V17.3239H99.1826V14.1334H102.144V10.4434L105.935 9.58335V14.1334H110.03V17.3239H105.935V23.7328C105.935 24.4172 106.082 24.898 106.377 25.1755C106.673 25.4529 107.189 25.5916 107.927 25.5916C108.278 25.5916 108.61 25.5732 108.923 25.5362C109.237 25.4807 109.578 25.3881 109.947 25.2587V28.3661C109.541 28.4955 109.052 28.5972 108.48 28.6712C107.909 28.7637 107.42 28.8099 107.014 28.8099C105.409 28.8099 104.191 28.4492 103.361 27.7279C102.549 26.9881 102.144 25.9153 102.144 24.5097Z" fill="#BEF102"/>
<path d="M110.959 26.8676L112.841 24.3429C113.69 24.8978 114.492 25.314 115.249 25.5913C116.005 25.8503 116.761 25.9798 117.518 25.9798C118.366 25.9798 119.04 25.8411 119.538 25.5636C120.054 25.2861 120.312 24.9163 120.312 24.4539C120.312 24.0839 120.165 23.788 119.87 23.566C119.593 23.3442 119.141 23.1869 118.514 23.0945L115.747 22.6783C114.326 22.4563 113.238 21.9939 112.481 21.2911C111.743 20.5882 111.375 19.6541 111.375 18.4889C111.375 17.1017 111.919 15.992 113.007 15.1596C114.096 14.3273 115.553 13.9112 117.379 13.9112C118.431 13.9112 119.455 14.0684 120.451 14.3828C121.447 14.6787 122.397 15.1226 123.301 15.7145L121.475 18.156C120.681 17.6936 119.925 17.3513 119.206 17.1295C118.486 16.889 117.757 16.7688 117.019 16.7688C116.337 16.7688 115.784 16.8983 115.359 17.1572C114.953 17.4161 114.75 17.7583 114.75 18.1837C114.75 18.5721 114.898 18.8773 115.193 19.0993C115.507 19.3027 116.014 19.4507 116.715 19.5431L119.482 19.9593C120.884 20.1628 121.964 20.6252 122.72 21.3466C123.495 22.0679 123.882 22.9835 123.882 24.0932C123.882 24.7775 123.716 25.4157 123.384 26.0075C123.07 26.5809 122.637 27.0803 122.083 27.5057C121.53 27.9311 120.866 28.2641 120.091 28.5045C119.316 28.7449 118.477 28.8652 117.573 28.8652C116.263 28.8652 115.036 28.6987 113.893 28.3658C112.749 28.0144 111.771 27.515 110.959 26.8676Z" fill="#BEF102"/>
<path fill-rule="evenodd" clip-rule="evenodd" d="M24.5507 0.592444C23.0171 0.205425 21.4127 0 19.7608 0C8.84721 0 0 8.96745 0 20.0294C0 30.5715 8.03526 39.2113 18.2366 40C18.2391 39.7475 18.2555 39.4929 18.2868 39.2374L18.725 35.6541C10.6755 35.114 4.31145 28.325 4.31145 20.0294C4.31145 11.381 11.2284 4.37004 19.7608 4.37004C20.5661 4.37004 21.3568 4.43248 22.1288 4.55284L24.5507 0.592444Z" fill="url(#paint0_linear_15_250)"/>
<path d="M37.3218 32.5382C38.8771 33.1626 40.5726 33.5058 42.3471 33.5058C49.8873 33.5058 56 27.31 56 19.6673C56 12.0245 49.8873 5.82886 42.3471 5.82886C41.2176 5.82886 40.1202 5.96784 39.0708 6.22988L38.4817 11.0449C39.6596 10.5016 40.9685 10.1989 42.3471 10.1989C47.5062 10.1989 51.6885 14.4381 51.6885 19.6673C51.6885 24.8967 47.5062 29.1357 42.3471 29.1357C41.4086 29.1357 40.5024 28.9955 39.6478 28.7345L37.3218 32.5382Z" fill="url(#paint1_linear_15_250)"/>
<path d="M40.6207 16.5338C40.7567 16.3114 40.599 16.0241 40.3409 16.0241H32.4863C32.2884 16.0241 32.1351 15.8483 32.1594 15.6492L33.8885 1.51203C33.932 1.15665 33.4678 0.990716 33.2817 1.29509L19.6869 23.5261C19.5509 23.7486 19.7087 24.0358 19.9669 24.0358H27.8215C28.0194 24.0358 28.1725 24.2116 28.1482 24.4107L26.4193 38.5478C26.3758 38.9033 26.8398 39.0692 27.0259 38.7647L40.6207 16.5338Z" fill="#BEF102"/>
</g>
<defs>
<linearGradient id="paint0_linear_15_250" x1="12.2754" y1="0" x2="12.2754" y2="40" gradientUnits="userSpaceOnUse">
<stop offset="0.39361" stop-color="#EAEDFB"/>
<stop offset="1" stop-color="#EAEDFB" stop-opacity="0"/>
</linearGradient>
<linearGradient id="paint1_linear_15_250" x1="46.6609" y1="5.82886" x2="46.6609" y2="33.5058" gradientUnits="userSpaceOnUse">
<stop stop-color="#EAEDFB" stop-opacity="0"/>
<stop offset="0.540292" stop-color="#EAEDFB"/>
</linearGradient>
<clipPath id="clip0_15_250">
<rect width="254" height="40" fill="white"/>
</clipPath>
</defs>
</svg>
