<svg width="600" height="144" viewBox="0 0 600 144" fill="none" xmlns="http://www.w3.org/2000/svg">
<path d="M299.547 51.1492C291.943 51.1492 284.853 54.1839 280.575 59.2597L279.122 60.9832V52.1968H267.145V116.655H279.122V79.8063C279.122 68.0866 285.644 61.0846 296.559 61.0846C307.475 61.0846 313.875 68.0866 313.875 79.8063V116.655H325.73V77.8192C325.73 61.3684 315.7 51.1492 299.547 51.1492Z" fill="#2C2933"/>
<path d="M176.044 116.77H188.48V75.0481H227.681V63.6056H188.48V42.4034H228.695V29.9673H176.044V116.77Z" fill="#2C2933"/>
<path d="M588.388 52.2306V59.0299C582.49 53.9399 574.957 51.1426 567.166 51.1492C549.032 51.1492 534.339 66.0185 534.339 84.3684C534.339 102.718 549.032 117.588 567.166 117.588C574.957 117.594 582.49 114.797 588.388 109.707V116.655H600V52.2306H588.388ZM567.166 106.902C554.96 106.902 545.024 96.764 545.024 84.3684C545.024 71.9729 554.96 61.8348 567.166 61.8348C579.372 61.8348 589.314 71.9729 589.314 84.3684C589.314 96.764 579.379 106.902 567.166 106.902V106.902Z" fill="#2C2933"/>
<path d="M392.047 59.0907C386.171 53.9909 378.659 51.1725 370.878 51.1492H370.784C352.697 51.1492 338.004 65.9576 337.957 84.267C337.909 102.576 352.556 117.527 370.689 117.581H370.784C378.541 117.587 386.044 114.812 391.932 109.761V116.716H403.544L403.8 29.947L392.189 29.9132L392.047 59.0907ZM370.75 106.902H370.689C367.78 106.897 364.902 106.31 362.223 105.176C359.544 104.042 357.119 102.384 355.09 100.299C350.895 96.0382 348.564 90.2864 348.608 84.3076C348.642 71.9121 358.578 61.8348 370.75 61.8348H370.818C373.728 61.8369 376.608 62.4217 379.288 63.5547C381.968 64.6876 384.394 66.3457 386.424 68.4313C390.619 72.6945 392.953 78.4479 392.912 84.4293C392.858 96.8248 382.929 106.902 370.75 106.902V106.902Z" fill="#2C2933"/>
<path d="M448.354 51.1492C430.227 51.1492 415.527 66.0185 415.527 84.3685C415.527 102.718 430.227 117.588 448.354 117.588C466.481 117.588 481.188 102.718 481.188 84.3685C481.188 66.0185 466.488 51.1492 448.354 51.1492ZM448.354 106.902C436.148 106.902 426.212 96.764 426.212 84.3685C426.212 71.9729 436.148 61.8348 448.354 61.8348C460.56 61.8348 470.502 71.9729 470.502 84.3685C470.502 96.764 460.567 106.902 448.354 106.902Z" fill="#2C2933"/>
<path d="M240.306 88.5859V105.307V116.527H252.905V52.0346H240.306V88.5859Z" fill="#2C2933"/>
<path d="M240.306 36.3611V39.612V42.4034H252.905V29.9673H240.306V36.3611Z" fill="#2C2933"/>
<path d="M525.985 51.6223C512.785 51.6223 507.405 59.4152 505.56 64.2071V52.3725H492.962V116.527H505.56V83.5371C505.56 77.4543 506.499 70.3778 514.407 65.2006C521.632 60.4695 530.371 61.9902 530.371 61.9902V51.9603C529.547 51.6088 526.911 51.6223 525.985 51.6223Z" fill="#2C2933"/>
<path d="M31.4813 26.6352C31.5827 27.0125 31.8297 27.3341 32.1681 27.5293C32.5065 27.7245 32.9086 27.7773 33.2859 27.6761L100.873 9.56264C101.209 9.47412 101.503 9.26992 101.703 8.98606C101.902 8.70219 101.995 8.35689 101.966 8.01103C101.936 7.66518 101.785 7.34099 101.539 7.09563C101.294 6.85027 100.969 6.69949 100.623 6.66989L26.392 0.00577198C26.1562 -0.0151572 25.9189 0.021018 25.7001 0.111238C25.4813 0.201458 25.2874 0.343068 25.1349 0.524079C24.9824 0.70509 24.8757 0.920174 24.824 1.15113C24.7722 1.38209 24.7768 1.62212 24.8375 1.85091L31.4813 26.6352Z" fill="#260563"/>
<path d="M38.2198 70.9185L28.3588 34.1172L27.0746 29.3387L21.8231 9.73836C21.7365 9.4267 21.5501 9.15201 21.2926 8.95629C21.035 8.76057 20.7205 8.6546 20.397 8.6546C20.0735 8.6546 19.7589 8.76057 19.5014 8.95629C19.2439 9.15201 19.0575 9.4267 18.9709 9.73836L0.0464027 80.3943C-0.017597 80.6432 -0.0153581 80.9046 0.0528947 81.1524C0.121148 81.4002 0.253037 81.6259 0.435472 81.8069C0.617907 81.988 0.844539 82.1182 1.09286 82.1846C1.34117 82.251 1.60253 82.2512 1.85099 82.1854L37.1654 72.7231C37.3544 72.676 37.5321 72.5916 37.6879 72.4748C37.8438 72.358 37.9747 72.2112 38.0729 72.043C38.1712 71.8749 38.2348 71.6887 38.26 71.4956C38.2852 71.3025 38.2716 71.1063 38.2198 70.9185V70.9185Z" fill="#260563"/>
<path d="M120.352 13.2461C119.812 12.3133 118.98 11.584 117.985 11.1711C116.989 10.7582 115.885 10.6846 114.844 10.9617L34.5633 32.4545C34.186 32.5559 33.8644 32.8029 33.6693 33.1413C33.4741 33.4797 33.4213 33.8818 33.5225 34.2591L42.9847 69.6411C43.0861 70.0184 43.3331 70.34 43.6715 70.5352C44.0099 70.7304 44.412 70.7832 44.7893 70.682L137.093 45.9517C137.312 45.8936 137.513 45.7861 137.683 45.6375C137.853 45.489 137.987 45.3034 138.074 45.095C138.161 44.8867 138.199 44.6612 138.184 44.4359C138.17 44.2106 138.105 43.9915 137.992 43.7957L120.352 13.2461Z" fill="#260563"/>
<path d="M40.2677 78.5492C40.1663 78.1719 39.9193 77.8503 39.5809 77.6551C39.2425 77.4599 38.8404 77.4071 38.4631 77.5083L3.12163 86.9706C2.87153 87.036 2.64305 87.1661 2.45914 87.3478C2.27523 87.5295 2.14237 87.7564 2.07388 88.0057C2.0054 88.2549 2.00371 88.5179 2.06898 88.768C2.13426 89.0182 2.2642 89.2467 2.44576 89.4308L54.3326 141.73C54.561 141.963 54.8602 142.114 55.1833 142.158C55.5065 142.203 55.8353 142.139 56.1182 141.977C56.4012 141.814 56.6222 141.563 56.7468 141.261C56.8713 140.96 56.8923 140.625 56.8063 140.311L40.2677 78.5492Z" fill="#260563"/>
<path d="M134.113 51.8792L46.087 75.4672C45.9004 75.5166 45.7255 75.6024 45.5721 75.7196C45.4188 75.8368 45.2901 75.9831 45.1934 76.1501C45.0967 76.3171 45.0339 76.5015 45.0087 76.6929C44.9834 76.8842 44.9961 77.0786 45.0461 77.265L62.5648 142.629C62.6358 142.892 62.7784 143.13 62.9767 143.317C63.1751 143.504 63.4213 143.632 63.6882 143.688C63.955 143.743 64.232 143.723 64.4883 143.631C64.7446 143.538 64.9701 143.376 65.1399 143.163L135.674 54.2177C135.871 53.9734 135.985 53.6726 135.999 53.3592C136.013 53.0458 135.926 52.7361 135.752 52.4751C135.578 52.2142 135.325 52.0157 135.03 51.9085C134.735 51.8013 134.414 51.791 134.113 51.8792V51.8792Z" fill="#260563"/>
</svg>
